<?xml version="1.0" encoding="utf-8"?>
<!-- Generator: Adobe Illustrator 25.2.1, SVG Export Plug-In . SVG Version: 6.00 Build 0)  -->
<svg version="1.1" id="Calque_1" xmlns="http://www.w3.org/2000/svg" xmlns:xlink="http://www.w3.org/1999/xlink" x="0px" y="0px"
	 viewBox="0 0 512 512" style="enable-background:new 0 0 512 512;" xml:space="preserve">
<style type="text/css">
	.st0{fill:#30363D;}
	.st1{fill:#161B22;}
	.st2{fill:#F0F6FC;}
	.st3{fill:#D2A8FF;}
	.st4{fill:#79C0FF;}
	.st5{fill:#FF7B72;}
</style>
<path id="border" class="st0" d="M76.8,0h358.4C477.6,0,512,34.4,512,76.8v358.4c0,42.4-34.4,76.8-76.8,76.8H76.8
	C34.4,512,0,477.6,0,435.2V76.8C0,34.4,34.4,0,76.8,0z"/>
<path id="bg" class="st1" d="M85.1,13.2h341.8c40.4,0,73.2,32.8,73.2,73.2v341.8c0,40.4-32.8,73.2-73.2,73.2H85.1
	c-40.4,0-73.2-32.8-73.2-73.2V86.4C11.9,46,44.7,13.2,85.1,13.2z"/>
<path id="img" class="st2" d="M371.4,148.2c-3,0.9-5,1.3-11.4,2.3c-5.2,0.8-8.9,1.7-13.9,3.4l-2.7,0.9l-0.9-0.5
	c-2.4-1.2-4.5-1.8-7.4-1.9c-5.6-0.2-10.6,1.5-17.7,5.9c-6.1,3.8-9.8,7.8-10.8,11.9c-0.3,1.2-0.4,3.6-0.1,4.8l0.2,0.8l-0.5,0.5
	c-1.1,1.2-1.4,2.9-1,4.6l0.3,0.9l-0.7,0.9c-0.9,1.1-1.4,2.1-1.4,2.7c0,0.3,0.2,0.6,0.6,1c0.3,0.3,0.6,0.6,0.6,0.8
	c0,0.1,0.3,0.5,0.6,0.9c0.7,0.7,1.8,1.4,3.1,1.9c1.4,0.5,3.9,1,5,1c1.5,0,5.2,0.4,8.1,0.8c1.3,0.2,3.6,0.4,5,0.5
	c4.1,0.3,5.6,0.6,7.3,1.7c1.1,0.7,2.5,2.2,3.1,3.2c2,3.5,3.5,5.7,5.6,8.2c2,2.4,4.9,4.9,7.5,6.7l1,0.7l-0.4,0.4
	c-2.4,2.9-3.8,4.9-4.9,6.9c-0.6,1.2-2.2,5.9-2.9,8.6c-0.2,0.8-0.5,1.7-0.7,2c-0.5,0.8-0.7,1.6-0.6,2.6c0.4,4.6,0.5,5.6,1.2,6.5
	c1.1,1.7,4.3,1.3,6.8-0.6c0.9-0.8,1.9-1.9,3-3.5c1-1.5,1.3-2.5,1.5-5.2c0.3-3.1,0.5-4.7,0.9-5.5c0.4-0.9,1.6-2.1,2.8-2.8
	c1.4-0.8,3.8-1.5,5.4-1.5h0.6l2.6,3.3c3.8,4.8,5.2,6.8,6.8,9.7l0.7,1.2l-0.2,1.1c-0.3,2.1,0.3,3.9,1.5,4.7l0.6,0.4l-0.7,0.3
	c-0.9,0.4-1.8,1.3-2.1,2.3c-0.4,1-0.6,2.8-0.4,3.1c0.4,0.7,2,0.7,6.6-0.1c1.6-0.3,4.1-0.6,5.6-0.7c3.7-0.3,4.6-0.5,5-1.4
	c0.3-0.6,0.2-1.1-0.4-2.3c-0.3-0.5-0.5-1.1-0.5-1.2c0-0.1-0.1-0.5-0.3-0.9c-0.4-1-0.1-1.2,2.2-2.3c1.9-0.8,8.3-4.9,13.3-8.5
	c2.8-2,3.7-3.2,3.7-4.8c0-1.1-0.5-2.2-1.9-3.9c-2.8-3.4-3.4-4.3-4.3-5.5c-1.2-1.7-1.5-2.3-1.6-3.8c-0.1-2.1,0.4-4,1.4-4.6
	c0.6-0.4,1.5-0.4,2.3,0c0.4,0.2,1.2,0.9,1.9,1.5c1.5,1.5,5.5,4.5,7.3,5.6c3.1,1.8,4.7,2.2,11.5,2.7c5.6,0.4,8.1,1.4,10.1,3.9
	c2.3,2.9,4,6.6,5.1,11c0.6,2.3,0.6,3.5,0.2,4.8c-0.4,1.2-0.7,1.6-1.5,1.9c-1,0.3-1.6,0.6-2.1,1.2c-0.7,0.8-0.9,1.7-0.4,3.2l0.1,0.5
	l2,0.2c2.6,0.3,7.3,0.3,8.4,0c1.8-0.4,2.8-1.3,3.2-2.6c0.2-0.6,0.2-1.1,0.1-2.8c-0.3-7.2-1.9-12.8-6.1-21.5c-1-2-1.1-2.3-1-2.7
	c0.3-1-0.8-2.5-2.5-3.3c-2-1-4.1-2.5-5.8-4.4c-0.9-1-4-4.8-4.4-5.3c-0.1-0.2,0.3-0.2,3.1,0.4c2.8,0.5,4.6,1.1,11.4,3.3
	c3.2,1.1,7.1,2.3,8.6,2.8c5.9,1.8,13.5,4.5,19,6.6c2.5,0.9,3.9,1.3,5.6,1.3c1.4,0,2.3-0.2,3.4-0.6c1.8-0.8,2.4-2.3,1.5-4.1
	c-0.4-0.9-2-2.5-3.5-3.4c-0.7-0.4-4-2.2-7.4-3.9c-9.8-4.9-16.3-8.5-30.3-16.4c-1.6-0.9-1.7-1-2.2-1.8c-0.9-1.5-1.9-2.9-3.1-4.1
	c-2.2-2.2-3.8-3.2-6.9-4c-1-0.3-2.3-0.7-2.9-0.9c-1.4-0.6-4.8-2.6-8.2-4.7c-5.8-3.7-8.2-4.7-12.2-5.2c-0.9-0.1-3.7-0.1-8.3-0.1
	c-5.7,0-7.3,0-9.2-0.2c-7-0.7-9.5-0.4-18.6,2.4c-3.5,1.1-6,1.8-7.9,2.1c-3,0.6-2.9,0.7-1.4-0.7c4.4-4,8.6-9,11.3-13.6
	c1.1-1.9,2.7-4.6,3.1-5.5c0.3-0.7,0.4-1.6,0.3-2.1C374.5,147.8,373.2,147.7,371.4,148.2z"/>
<g id="gitfox">
	<path class="st2" d="M134.8,289c0,14-4,25-12.1,33c-8.1,8-19.2,12-33.5,12c-15.4,0-27.5-4.8-36.3-14.3
		c-8.8-9.5-13.2-22.6-13.2-39.3c0-16.4,4.4-29.4,13.2-38.8c8.8-9.4,20.7-14.1,35.9-14.1c12,0,22.1,3.2,30.4,9.7
		c8.3,6.5,13.2,14.9,14.8,25.3h-21.6c-1.6-5.4-4.4-9.6-8.6-12.6c-4.2-3-9.1-4.6-14.9-4.6c-8.5,0-15.2,3.1-20,9.2
		c-4.8,6.1-7.2,14.7-7.2,25.6c0,11.1,2.5,19.9,7.5,26.3c5,6.4,11.8,9.6,20.4,9.6c7,0,12.8-2,17.2-5.9c4.4-3.9,6.8-9.1,7-15.5
		l0.1-1.6H91.4v-15.7h43.3V289z"/>
	<path class="st2" d="M165.9,244.2c-2.1,2.1-4.8,3.1-7.9,3.1s-5.8-1-7.9-3.1c-2.1-2.1-3.2-4.6-3.2-7.6c0-3,1.1-5.6,3.2-7.7
		c2.1-2.1,4.8-3.1,7.9-3.1s5.8,1,7.9,3.1c2.1,2.1,3.2,4.6,3.2,7.7C169.1,239.6,168,242.1,165.9,244.2z M147.6,332.2v-76.4h20.8v76.4
		H147.6z"/>
	<path class="st2" d="M187.8,238.1h20.8v17.6h14.1v15.7h-14.1V308c0,5.8,3,8.6,9,8.6c1.9,0,3.6-0.1,5.1-0.4v15.3
		c-2.4,0.6-5.7,0.9-9.9,0.9c-9,0-15.4-1.6-19.2-4.8c-3.8-3.2-5.7-8.6-5.7-16v-40.1H177v-15.7h10.8V238.1z"/>
	<path class="st2" d="M257.4,332.2h-21.5V229.3h67.4v17.8h-45.8v27.6h41.8v17h-41.8V332.2z"/>
	<path class="st2" d="M374.8,323.2c-6.8,7.1-16,10.6-27.7,10.6c-11.6,0-20.9-3.5-27.7-10.6c-6.8-7.1-10.2-16.8-10.2-29.3
		c0-12.3,3.4-22,10.3-29.1c6.9-7.1,16.1-10.7,27.6-10.7c11.5,0,20.7,3.6,27.6,10.7c6.8,7.1,10.3,16.8,10.3,29.1
		C385,306.4,381.6,316.2,374.8,323.2z M347.1,317.9c5.1,0,9.2-2.1,12.2-6.3c3-4.2,4.5-10.1,4.5-17.7c0-7.5-1.5-13.4-4.5-17.6
		c-3-4.2-7.1-6.3-12.2-6.3s-9.2,2.1-12.2,6.3c-3,4.2-4.5,10.1-4.5,17.6c0,7.6,1.5,13.5,4.5,17.7
		C337.8,315.8,341.9,317.9,347.1,317.9z"/>
	<path class="st2" d="M425.3,305.7h-0.4l-14.3,26.5h-21.9l24-38.1l-23.8-38.4h23.5l13.8,25.8h0.4l13.5-25.8h22.7l-23.9,37.8
		l23.7,38.6h-22.6L425.3,305.7z"/>
</g>
<circle class="st3" cx="357.5" cy="62.1" r="15.5"/>
<circle class="st4" cx="393" cy="62.1" r="15.5"/>
<circle class="st5" cx="428.4" cy="62.1" r="15.5"/>
</svg>
