<?xml version="1.0" encoding="utf-8"?>
<!-- Generator: Adobe Illustrator 25.2.1, SVG Export Plug-In . SVG Version: 6.00 Build 0)  -->
<svg version="1.1" id="Calque_1" xmlns="http://www.w3.org/2000/svg" xmlns:xlink="http://www.w3.org/1999/xlink" x="0px" y="0px"
	 viewBox="0 0 512 512" style="enable-background:new 0 0 512 512;" xml:space="preserve">
<style type="text/css">
	.st0{fill:#1F6FEB;}
	.st1{fill:#161B22;}
	.st2{fill:#F0F6FC;}
</style>
<rect class="st0" width="512" height="343.1"/>
<rect y="343.1" class="st1" width="512" height="168.9"/>
<path id="img" class="st2" d="M215.1,243.2c-7.4,2.2-12.3,3.2-28.1,5.7c-12.8,2-22,4.2-34.3,8.4l-6.7,2.2l-2.2-1.2
	c-5.9-3-11.1-4.4-18.3-4.7c-13.8-0.5-26.1,3.7-43.7,14.6c-15,9.4-24.2,19.2-26.6,29.4c-0.7,3-1,8.9-0.2,11.8l0.5,2l-1.2,1.2
	c-2.7,3-3.5,7.2-2.5,11.3l0.7,2.2l-1.7,2.2c-2.2,2.7-3.5,5.2-3.5,6.7c0,0.7,0.5,1.5,1.5,2.5c0.7,0.7,1.5,1.5,1.5,2
	c0,0.2,0.7,1.2,1.5,2.2c1.7,1.7,4.4,3.5,7.6,4.7c3.5,1.2,9.6,2.5,12.3,2.5c3.7,0,12.8,1,20,2c3.2,0.5,8.9,1,12.3,1.2
	c10.1,0.7,13.8,1.5,18,4.2c2.7,1.7,6.2,5.4,7.6,7.9c4.9,8.6,8.6,14.1,13.8,20.2c4.9,5.9,12.1,12.1,18.5,16.5l2.5,1.7l-1,1
	c-5.9,7.2-9.4,12.1-12.1,17c-1.5,3-5.4,14.6-7.2,21.2c-0.5,2-1.2,4.2-1.7,4.9c-1.2,2-1.7,3.9-1.5,6.4c1,11.3,1.2,13.8,3,16
	c2.7,4.2,10.6,3.2,16.8-1.5c2.2-2,4.7-4.7,7.4-8.6c2.5-3.7,3.2-6.2,3.7-12.8c0.7-7.6,1.2-11.6,2.2-13.6c1-2.2,3.9-5.2,6.9-6.9
	c3.5-2,9.4-3.7,13.3-3.7h1.5l6.4,8.1c9.4,11.8,12.8,16.8,16.8,23.9l1.7,3l-0.5,2.7c-0.7,5.2,0.7,9.6,3.7,11.6l1.5,1l-1.7,0.7
	c-2.2,1-4.4,3.2-5.2,5.7c-1,2.5-1.5,6.9-1,7.6c1,1.7,4.9,1.7,16.3-0.2c3.9-0.7,10.1-1.5,13.8-1.7c9.1-0.7,11.3-1.2,12.3-3.5
	c0.7-1.5,0.5-2.7-1-5.7c-0.7-1.2-1.2-2.7-1.2-3c0-0.2-0.2-1.2-0.7-2.2c-1-2.5-0.2-3,5.4-5.7c4.7-2,20.5-12.1,32.8-21
	c6.9-4.9,9.1-7.9,9.1-11.8c0-2.7-1.2-5.4-4.7-9.6c-6.9-8.4-8.4-10.6-10.6-13.6c-3-4.2-3.7-5.7-3.9-9.4c-0.2-5.2,1-9.9,3.5-11.3
	c1.5-1,3.7-1,5.7,0c1,0.5,3,2.2,4.7,3.7c3.7,3.7,13.6,11.1,18,13.8c7.6,4.4,11.6,5.4,28.4,6.7c13.8,1,20,3.5,24.9,9.6
	c5.7,7.2,9.9,16.3,12.6,27.1c1.5,5.7,1.5,8.6,0.5,11.8c-1,3-1.7,3.9-3.7,4.7c-2.5,0.7-3.9,1.5-5.2,3c-1.7,2-2.2,4.2-1,7.9l0.2,1.2
	l4.9,0.5c6.4,0.7,18,0.7,20.7,0c4.4-1,6.9-3.2,7.9-6.4c0.5-1.5,0.5-2.7,0.2-6.9c-0.7-17.8-4.7-31.6-15-53c-2.5-4.9-2.7-5.7-2.5-6.7
	c0.7-2.5-2-6.2-6.2-8.1c-4.9-2.5-10.1-6.2-14.3-10.9c-2.2-2.5-9.9-11.8-10.9-13.1c-0.2-0.5,0.7-0.5,7.6,1c6.9,1.2,11.3,2.7,28.1,8.1
	c7.9,2.7,17.5,5.7,21.2,6.9c14.6,4.4,33.3,11.1,46.9,16.3c6.2,2.2,9.6,3.2,13.8,3.2c3.5,0,5.7-0.5,8.4-1.5c4.4-2,5.9-5.7,3.7-10.1
	c-1-2.2-4.9-6.2-8.6-8.4c-1.7-1-9.9-5.4-18.3-9.6c-24.2-12.1-40.2-21-74.7-40.5c-3.9-2.2-4.2-2.5-5.4-4.4c-2.2-3.7-4.7-7.2-7.6-10.1
	c-5.4-5.4-9.4-7.9-17-9.9c-2.5-0.7-5.7-1.7-7.2-2.2c-3.5-1.5-11.8-6.4-20.2-11.6c-14.3-9.1-20.2-11.6-30.1-12.8
	c-2.2-0.2-9.1-0.2-20.5-0.2c-14.1,0-18,0-22.7-0.5c-17.3-1.7-23.4-1-45.9,5.9c-8.6,2.7-14.8,4.4-19.5,5.2c-7.4,1.5-7.2,1.7-3.5-1.7
	c10.9-9.9,21.2-22.2,27.9-33.5c2.7-4.7,6.7-11.3,7.6-13.6c0.7-1.7,1-3.9,0.7-5.2C222.8,242.2,219.5,241.9,215.1,243.2z"/>
<g>
	<path class="st2" d="M57.2,89.7l12.7,39.6l12.7-39.6h18v56.9H86.8v-13.3l1.3-27.2l-13.8,40.5h-9.1l-13.8-40.5l1.3,27.2v13.3H39.2
		V89.7H57.2z"/>
	<path class="st2" d="M132.5,146.6c-0.5-0.9-0.9-2.1-1.2-3.8c-2.4,3-5.8,4.6-10.2,4.6c-4,0-7.4-1.2-10.2-3.6
		c-2.8-2.4-4.2-5.4-4.2-9.1c0-4.6,1.7-8,5.1-10.4c3.4-2.3,8.3-3.5,14.8-3.5h4.1v-2.2c0-3.9-1.7-5.8-5-5.8c-3.1,0-4.7,1.5-4.7,4.6
		h-13.2c0-4.1,1.7-7.4,5.2-9.9s7.9-3.8,13.3-3.8s9.6,1.3,12.8,3.9c3.1,2.6,4.7,6.2,4.8,10.8V137c0.1,3.9,0.7,6.8,1.8,8.9v0.7H132.5z
		 M124.3,138c1.6,0,3-0.4,4.1-1.1c1.1-0.7,1.9-1.5,2.3-2.4v-6.8h-3.8c-4.6,0-6.9,2.1-6.9,6.2c0,1.2,0.4,2.2,1.2,2.9
		C122,137.6,123,138,124.3,138z"/>
	<path class="st2" d="M168.1,130.9l-3.7,3.7v12h-13.2v-60h13.2v31.9l1.3-1.8l9.9-12.3h15.8l-14.8,17.4l15.8,24.9h-15.1L168.1,130.9z
		"/>
	<path class="st2" d="M194.8,93.4c0-1.9,0.7-3.4,2-4.6c1.4-1.2,3.1-1.8,5.3-1.8c2.2,0,3.9,0.6,5.3,1.8c1.4,1.2,2,2.7,2,4.6
		s-0.7,3.4-2,4.6c-1.4,1.2-3.1,1.8-5.3,1.8c-2.2,0-3.9-0.6-5.3-1.8C195.5,96.9,194.8,95.3,194.8,93.4z M208.8,146.6h-13.2v-42.3
		h13.2V146.6z"/>
	<path class="st2" d="M234,116l6.1-11.6h13.7l-11.1,20.6l11.7,21.7h-13.8l-6.6-12.5l-6.5,12.5h-13.8l11.7-21.7l-11.1-20.6h13.8
		L234,116z"/>
	<path class="st2" d="M288,131.5c0-2-0.7-3.6-2.1-4.7c-1.4-1.1-3.9-2.3-7.5-3.5c-3.6-1.2-6.5-2.4-8.8-3.5
		c-7.4-3.6-11.1-8.6-11.1-14.9c0-3.2,0.9-5.9,2.8-8.3c1.8-2.4,4.4-4.3,7.8-5.6c3.4-1.3,7.1-2,11.3-2c4.1,0,7.8,0.7,11,2.2
		c3.2,1.5,5.8,3.5,7.6,6.2s2.7,5.8,2.7,9.2H288c0-2.3-0.7-4.1-2.1-5.4c-1.4-1.3-3.3-1.9-5.8-1.9c-2.4,0-4.4,0.5-5.8,1.6
		c-1.4,1.1-2.1,2.5-2.1,4.1c0,1.5,0.8,2.8,2.3,4c1.6,1.2,4.3,2.4,8.2,3.7c3.9,1.3,7.2,2.6,9.7,4.1c6.1,3.5,9.2,8.4,9.2,14.6
		c0,5-1.9,8.9-5.6,11.7c-3.8,2.8-8.9,4.3-15.4,4.3c-4.6,0-8.8-0.8-12.5-2.5c-3.7-1.7-6.5-3.9-8.4-6.8c-1.9-2.9-2.8-6.2-2.8-9.9h13.8
		c0,3,0.8,5.3,2.4,6.7c1.6,1.4,4.1,2.2,7.7,2.2c2.3,0,4.1-0.5,5.4-1.5C287.3,134.6,288,133.3,288,131.5z"/>
	<path class="st2" d="M323.5,93.8v10.5h7v9.1h-7v19.3c0,1.6,0.3,2.7,0.9,3.3c0.6,0.6,1.7,0.9,3.4,0.9c1.3,0,2.4-0.1,3.3-0.2v9.4
		c-2.4,0.8-4.8,1.1-7.4,1.1c-4.5,0-7.9-1.1-10-3.2c-2.2-2.1-3.2-5.4-3.2-9.7v-21h-5.4v-9.1h5.4V93.8H323.5z"/>
	<path class="st2" d="M360.8,142c-2.8,3.6-6.5,5.4-11.3,5.4c-4.6,0-8.1-1.3-10.5-4s-3.6-6.6-3.6-11.6v-27.4h13.2v27.5
		c0,3.6,1.8,5.4,5.3,5.4c3,0,5.2-1.1,6.4-3.2v-29.6h13.2v42.3h-12.3L360.8,142z"/>
	<path class="st2" d="M379.1,125.2c0-6.7,1.4-12,4.3-15.8c2.9-3.9,6.9-5.8,12.1-5.8c3.8,0,7,1.5,9.5,4.5V86.6h13.2v60h-11.8
		l-0.7-4.5c-2.7,3.5-6.1,5.3-10.3,5.3c-5,0-9-1.9-12-5.8C380.5,137.8,379.1,132.3,379.1,125.2z M392.2,126c0,7.5,2.2,11.2,6.6,11.2
		c2.9,0,5-1.2,6.2-3.7v-16.1c-1.2-2.5-3.3-3.8-6.2-3.8c-4.1,0-6.3,3.3-6.6,9.8L392.2,126z"/>
	<path class="st2" d="M425.6,93.4c0-1.9,0.7-3.4,2-4.6c1.4-1.2,3.1-1.8,5.3-1.8c2.2,0,3.9,0.6,5.3,1.8c1.4,1.2,2,2.7,2,4.6
		s-0.7,3.4-2,4.6c-1.4,1.2-3.1,1.8-5.3,1.8c-2.2,0-3.9-0.6-5.3-1.8C426.3,96.9,425.6,95.3,425.6,93.4z M439.6,146.6h-13.2v-42.3
		h13.2V146.6z"/>
	<path class="st2" d="M446.1,125.1c0-4.2,0.8-8,2.5-11.3c1.6-3.3,4-5.8,7.1-7.6c3.1-1.8,6.7-2.7,10.8-2.7c6.3,0,11.3,2,15,5.9
		c3.6,3.9,5.5,9.3,5.5,16v0.5c0,6.6-1.8,11.8-5.5,15.7c-3.7,3.9-8.6,5.8-14.9,5.8c-6,0-10.8-1.8-14.5-5.4c-3.6-3.6-5.6-8.5-5.9-14.7
		L446.1,125.1z M459.2,125.9c0,3.9,0.6,6.8,1.8,8.6c1.2,1.8,3,2.7,5.4,2.7c4.7,0,7.1-3.6,7.2-10.8v-1.3c0-7.6-2.4-11.4-7.3-11.4
		c-4.4,0-6.8,3.3-7.1,9.8L459.2,125.9z"/>
</g>
</svg>
