<?xml version="1.0" encoding="utf-8"?>
<!-- Generator: Adobe Illustrator 25.2.1, SVG Export Plug-In . SVG Version: 6.00 Build 0)  -->
<svg version="1.1" id="Calque_1" xmlns="http://www.w3.org/2000/svg" xmlns:xlink="http://www.w3.org/1999/xlink" x="0px" y="0px"
	 viewBox="0 0 512 512" style="enable-background:new 0 0 512 512;" xml:space="preserve">
<style type="text/css">
	.st0{fill:#1F6FEB;}
	.st1{fill:#161B22;}
	.st2{fill:#F0F6FC;}
</style>
<rect class="st0" width="512" height="343.1"/>
<rect y="343.1" class="st1" width="512" height="168.9"/>
<g>
</g>
<path id="img" class="st2" d="M215.1,243.2c-7.4,2.2-12.3,3.2-28.1,5.7c-12.8,2-22,4.2-34.3,8.4l-6.7,2.2l-2.2-1.2
	c-5.9-3-11.1-4.4-18.3-4.7c-13.8-0.5-26.1,3.7-43.7,14.6c-15,9.4-24.2,19.2-26.6,29.4c-0.7,3-1,8.9-0.2,11.8l0.5,2l-1.2,1.2
	c-2.7,3-3.5,7.2-2.5,11.3l0.7,2.2l-1.7,2.2c-2.2,2.7-3.5,5.2-3.5,6.7c0,0.7,0.5,1.5,1.5,2.5c0.7,0.7,1.5,1.5,1.5,2
	c0,0.2,0.7,1.2,1.5,2.2c1.7,1.7,4.4,3.5,7.6,4.7c3.5,1.2,9.6,2.5,12.3,2.5c3.7,0,12.8,1,20,2c3.2,0.5,8.9,1,12.3,1.2
	c10.1,0.7,13.8,1.5,18,4.2c2.7,1.7,6.2,5.4,7.6,7.9c4.9,8.6,8.6,14.1,13.8,20.2c4.9,5.9,12.1,12.1,18.5,16.5l2.5,1.7l-1,1
	c-5.9,7.2-9.4,12.1-12.1,17c-1.5,3-5.4,14.6-7.2,21.2c-0.5,2-1.2,4.2-1.7,4.9c-1.2,2-1.7,3.9-1.5,6.4c1,11.3,1.2,13.8,3,16
	c2.7,4.2,10.6,3.2,16.8-1.5c2.2-2,4.7-4.7,7.4-8.6c2.5-3.7,3.2-6.2,3.7-12.8c0.7-7.6,1.2-11.6,2.2-13.6c1-2.2,3.9-5.2,6.9-6.9
	c3.5-2,9.4-3.7,13.3-3.7h1.5l6.4,8.1c9.4,11.8,12.8,16.8,16.8,23.9l1.7,3l-0.5,2.7c-0.7,5.2,0.7,9.6,3.7,11.6l1.5,1l-1.7,0.7
	c-2.2,1-4.4,3.2-5.2,5.7c-1,2.5-1.5,6.9-1,7.6c1,1.7,4.9,1.7,16.3-0.2c3.9-0.7,10.1-1.5,13.8-1.7c9.1-0.7,11.3-1.2,12.3-3.5
	c0.7-1.5,0.5-2.7-1-5.7c-0.7-1.2-1.2-2.7-1.2-3c0-0.2-0.2-1.2-0.7-2.2c-1-2.5-0.2-3,5.4-5.7c4.7-2,20.5-12.1,32.8-21
	c6.9-4.9,9.1-7.9,9.1-11.8c0-2.7-1.2-5.4-4.7-9.6c-6.9-8.4-8.4-10.6-10.6-13.6c-3-4.2-3.7-5.7-3.9-9.4c-0.2-5.2,1-9.9,3.5-11.3
	c1.5-1,3.7-1,5.7,0c1,0.5,3,2.2,4.7,3.7c3.7,3.7,13.6,11.1,18,13.8c7.6,4.4,11.6,5.4,28.4,6.7c13.8,1,20,3.5,24.9,9.6
	c5.7,7.2,9.9,16.3,12.6,27.1c1.5,5.7,1.5,8.6,0.5,11.8c-1,3-1.7,3.9-3.7,4.7c-2.5,0.7-3.9,1.5-5.2,3c-1.7,2-2.2,4.2-1,7.9l0.2,1.2
	l4.9,0.5c6.4,0.7,18,0.7,20.7,0c4.4-1,6.9-3.2,7.9-6.4c0.5-1.5,0.5-2.7,0.2-6.9c-0.7-17.8-4.7-31.6-15-53c-2.5-4.9-2.7-5.7-2.5-6.7
	c0.7-2.5-2-6.2-6.2-8.1c-4.9-2.5-10.1-6.2-14.3-10.9c-2.2-2.5-9.9-11.8-10.9-13.1c-0.2-0.5,0.7-0.5,7.6,1c6.9,1.2,11.3,2.7,28.1,8.1
	c7.9,2.7,17.5,5.7,21.2,6.9c14.6,4.4,33.3,11.1,46.9,16.3c6.2,2.2,9.6,3.2,13.8,3.2c3.5,0,5.7-0.5,8.4-1.5c4.4-2,5.9-5.7,3.7-10.1
	c-1-2.2-4.9-6.2-8.6-8.4c-1.7-1-9.9-5.4-18.3-9.6c-24.2-12.1-40.2-21-74.7-40.5c-3.9-2.2-4.2-2.5-5.4-4.4c-2.2-3.7-4.7-7.2-7.6-10.1
	c-5.4-5.4-9.4-7.9-17-9.9c-2.5-0.7-5.7-1.7-7.2-2.2c-3.5-1.5-11.8-6.4-20.2-11.6c-14.3-9.1-20.2-11.6-30.1-12.8
	c-2.2-0.2-9.1-0.2-20.5-0.2c-14.1,0-18,0-22.7-0.5c-17.3-1.7-23.4-1-45.9,5.9c-8.6,2.7-14.8,4.4-19.5,5.2c-7.4,1.5-7.2,1.7-3.5-1.7
	c10.9-9.9,21.2-22.2,27.9-33.5c2.7-4.7,6.7-11.3,7.6-13.6c0.7-1.7,1-3.9,0.7-5.2C222.8,242.2,219.5,241.9,215.1,243.2z"/>
<g id="gitfox">
	<path class="st2" d="M139.5,120.2c0,14-4,25-12.1,33c-8.1,8-19.2,12-33.5,12c-15.4,0-27.5-4.8-36.3-14.3s-13.2-22.6-13.2-39.3
		c0-16.4,4.4-29.4,13.2-38.8c8.8-9.4,20.7-14.1,35.9-14.1c12,0,22.1,3.2,30.4,9.7s13.2,14.9,14.8,25.3h-21.6
		c-1.6-5.4-4.4-9.6-8.6-12.6s-9.1-4.6-14.9-4.6c-8.5,0-15.2,3.1-20,9.2s-7.2,14.7-7.2,25.6c0,11.1,2.5,19.9,7.5,26.3
		s11.8,9.6,20.4,9.6c7,0,12.8-2,17.2-5.9c4.4-3.9,6.8-9.1,7-15.5l0.1-1.6H96.1v-15.7h43.3v11.7H139.5z"/>
	<path class="st2" d="M170.6,75.4c-2.1,2.1-4.8,3.1-7.9,3.1s-5.8-1-7.9-3.1c-2.1-2.1-3.2-4.6-3.2-7.6s1.1-5.6,3.2-7.7
		c2.1-2.1,4.8-3.1,7.9-3.1s5.8,1,7.9,3.1c2.1,2.1,3.2,4.6,3.2,7.7C173.8,70.8,172.7,73.3,170.6,75.4z M152.3,163.4V87h20.8v76.4
		H152.3z"/>
	<path class="st2" d="M192.5,69.3h20.8v17.6h14.1v15.7h-14.1v36.6c0,5.8,3,8.6,9,8.6c1.9,0,3.6-0.1,5.1-0.4v15.3
		c-2.4,0.6-5.7,0.9-9.9,0.9c-9,0-15.4-1.6-19.2-4.8c-3.8-3.2-5.7-8.6-5.7-16v-40.1h-10.9V87h10.8V69.3z"/>
	<path class="st2" d="M262.1,163.4h-21.5V60.5H308v17.8h-45.8v27.6H304v17h-41.8v40.5H262.1z"/>
	<path class="st2" d="M379.5,154.4c-6.8,7.1-16,10.6-27.7,10.6c-11.6,0-20.9-3.5-27.7-10.6c-6.8-7.1-10.2-16.8-10.2-29.3
		c0-12.3,3.4-22,10.3-29.1s16.1-10.7,27.6-10.7s20.7,3.6,27.6,10.7c6.8,7.1,10.3,16.8,10.3,29.1
		C389.8,137.6,386.4,147.4,379.5,154.4z M351.9,149.1c5.1,0,9.2-2.1,12.2-6.3c3-4.2,4.5-10.1,4.5-17.7c0-7.5-1.5-13.4-4.5-17.6
		s-7.1-6.3-12.2-6.3s-9.2,2.1-12.2,6.3c-3,4.2-4.5,10.1-4.5,17.6c0,7.6,1.5,13.5,4.5,17.7C342.5,147,346.6,149.1,351.9,149.1z"/>
	<path class="st2" d="M430,136.9h-0.4l-14.3,26.5h-21.9l24-38.1l-23.8-38.4h23.5l13.8,25.8h0.4l13.5-25.8h22.7l-23.9,37.8l23.7,38.6
		h-22.6L430,136.9z"/>
</g>
</svg>
